<svg xmlns="http://www.w3.org/2000/svg" viewBox="0 0 1440 320"><path fill="#00cba9" fill-opacity="1" d="M0,192L24,181.3C48,171,96,149,144,138.7C192,128,240,128,288,112C336,96,384,64,432,58.7C480,53,528,75,576,112C624,149,672,203,720,213.3C768,224,816,192,864,176C912,160,960,160,1008,144C1056,128,1104,96,1152,90.7C1200,85,1248,107,1296,122.7C1344,139,1392,149,1416,154.7L1440,160L1440,320L1416,320C1392,320,1344,320,1296,320C1248,320,1200,320,1152,320C1104,320,1056,320,1008,320C960,320,912,320,864,320C816,320,768,320,720,320C672,320,624,320,576,320C528,320,480,320,432,320C384,320,336,320,288,320C240,320,192,320,144,320C96,320,48,320,24,320L0,320Z"></path></svg>